<svg width="80" height="24" viewBox="0 0 80 24" fill="none" xmlns="http://www.w3.org/2000/svg">
<path d="M16.1969 24V0H20.7603V19.2H31.4082V24H16.1969Z" fill="#0078FF"/>
<path fill-rule="evenodd" clip-rule="evenodd" d="M32.3958 24V0H47.6071V24H32.3958ZM43.046 4.80007H36.9645V19.2001H43.046V12.0001V4.80007Z" fill="#0078FF"/>
<path d="M63.8017 0H48.5904V4.8H53.9143V24H58.4777V4.8H63.8017V0Z" fill="#0078FF"/>
<path d="M80 0H64.7887V14.4H75.4366V19.2H64.7887V24H80V9.6H69.3521V4.8H80V0Z" fill="#0078FF"/>
<path d="M0 9.6V6.4L7.60565 0H15.2114V4.8H7.68171L6.08098 6.4V9.6H10.6444V14.411H6.08098V19.2H15.2113V24H1.52123L1.52113 9.6H0Z" fill="#0078FF"/>
<path d="M0 4.8V0H6.08448L0 4.8Z" fill="#D50000"/>
</svg>
